<svg width="246" height="32" viewBox="0 0 246 32" fill="none" xmlns="http://www.w3.org/2000/svg">
<path d="M37 11.9088H39.2936V8.92546L43.0617 8.14038V11.9088H46.8298V14.578H43.0617V21.9578C43.0617 23.685 43.7171 24.313 45.683 24.313H46.8298V27.1393H45.0277C40.6043 27.1393 39.2936 25.4121 39.2936 21.9578V14.578H37V11.9088Z" fill="#1A519A"/>
<path d="M48.9597 27.1394V11.9088H52.4001V13.793C53.1262 13.0423 54.0174 12.4557 55.0091 12.0756C56.0007 11.6954 57.0682 11.5312 58.1342 11.5948V14.8921C56.1656 14.7674 54.2245 15.3875 52.7277 16.6193V27.1394H48.9597Z" fill="#1A519A"/>
<path d="M59.4449 23.0569C59.4449 20.0736 61.7385 18.3464 66.6534 18.3464H68.6194V17.7183C68.6194 15.6771 67.8003 14.892 65.5066 14.892C64.7222 14.9025 63.9495 15.0764 63.2422 15.4018C62.535 15.7272 61.91 16.1962 61.4109 16.7762L59.4449 13.9499C60.3181 13.1583 61.3477 12.5421 62.4732 12.1376C63.5986 11.7331 64.7971 11.5485 65.9981 11.5947C70.7492 11.5947 72.2237 13.9499 72.2237 16.9333V27.1393H68.7832V25.4121C68.2758 26.0725 67.6073 26.6038 66.8362 26.9596C66.0652 27.3154 65.215 27.4849 64.3598 27.4533C63.725 27.5219 63.0821 27.4579 62.4755 27.2657C61.869 27.0735 61.313 26.7576 60.846 26.3398C60.3789 25.9221 60.0118 25.4123 59.77 24.8455C59.5281 24.2788 59.4172 23.6686 59.4449 23.0569ZM68.6194 22.7428V20.7016H66.3258C64.3598 20.7016 63.3768 21.4867 63.3768 22.7428C63.3768 23.999 64.196 24.627 65.5066 24.627C66.1543 24.6101 66.7852 24.4262 67.333 24.0946C67.8808 23.763 68.3252 23.296 68.6194 22.7428Z" fill="#1A519A"/>
<path d="M75.8279 27.1393V11.9087H79.2683V13.6359C79.8914 12.9831 80.6512 12.4638 81.4982 12.112C82.3452 11.7603 83.2602 11.584 84.1833 11.5947C87.9514 11.5947 89.4258 13.9499 89.4258 16.9332V27.1393H85.6577V17.7183C85.6577 15.6771 84.6747 14.892 83.2003 14.892C82.5117 14.8546 81.824 14.9779 81.1962 15.2514C80.5684 15.5249 80.0193 15.9404 79.596 16.4622V27.1393H75.8279Z" fill="#1A519A"/>
<path d="M104.171 15.52L100.73 16.6191C100.575 15.9966 100.193 15.448 99.6514 15.0734C99.1101 14.6987 98.4464 14.5229 97.7811 14.5779C96.4705 14.5779 95.6514 15.206 95.6514 16.1481C95.6514 17.0902 96.4705 17.7182 99.0918 18.1893C101.713 18.6603 104.334 19.7594 104.334 22.5857C104.334 25.412 101.877 27.4532 97.7811 27.4532C93.6854 27.4532 92.0471 25.726 91.5556 22.8998L94.8322 22.1147C95.018 22.8056 95.4437 23.4153 96.0392 23.8434C96.6348 24.2715 97.3647 24.4925 98.1088 24.4699C99.7471 24.4699 100.73 23.8418 100.73 22.7427C100.73 21.6436 99.7471 21.1726 97.6173 20.8586C95.4875 20.5445 92.0471 19.9164 92.0471 16.4621C92.0471 13.0077 94.3407 11.5946 98.1088 11.5946C101.877 11.5946 103.679 13.4788 104.171 15.52Z" fill="#1A519A"/>
<path d="M106.792 27.1393V5H110.56V27.1393H106.792Z" fill="#1A519A"/>
<path d="M113.345 23.0568C113.345 20.0735 115.639 18.3463 120.39 18.3463H122.356V17.7183C122.356 15.6771 121.537 14.892 119.407 14.892C118.616 14.867 117.831 15.0253 117.118 15.3533C116.405 15.6813 115.785 16.1694 115.311 16.7762L113.345 13.9499C114.194 13.1702 115.195 12.5604 116.293 12.156C117.39 11.7516 118.56 11.5608 119.735 11.5947C124.649 11.5947 126.124 13.9499 126.124 16.9332V27.1392H122.684V25.4121C122.176 26.0725 121.508 26.6038 120.737 26.9596C119.965 27.3154 119.115 27.4849 118.26 27.4533C117.625 27.5219 116.982 27.4579 116.376 27.2657C115.769 27.0734 115.213 26.7576 114.746 26.3398C114.279 25.922 113.912 25.4122 113.67 24.8455C113.428 24.2788 113.317 23.6686 113.345 23.0568ZM122.356 22.7428V20.7016H120.226C118.096 20.7016 117.277 21.4867 117.277 22.7428C117.277 23.9989 118.096 24.627 119.407 24.627C120.035 24.617 120.647 24.4341 121.17 24.1C121.693 23.7659 122.105 23.2948 122.356 22.7428Z" fill="#1A519A"/>
<path d="M127.926 11.9088H130.22V8.92546L133.988 8.14038V11.9088H137.756V14.578H133.988V21.9578C133.988 23.685 134.807 24.313 136.609 24.313H137.756V27.1393H135.954C131.694 27.1393 130.22 25.4121 130.22 21.9578V14.578H127.926V11.9088Z" fill="#1A519A"/>
<path d="M139.067 19.6024C139.067 14.7349 142.016 11.5946 146.439 11.5946C150.862 11.5946 153.648 14.8919 152.992 20.2305H142.835C142.999 22.8998 144.473 24.3129 146.603 24.3129C147.283 24.2612 147.939 24.0475 148.511 23.691C149.084 23.3345 149.554 22.8466 149.879 22.2717L152.828 23.8418C152.279 24.9661 151.395 25.9091 150.287 26.5518C149.179 27.1946 147.897 27.5083 146.603 27.4532C141.852 27.4532 139.067 24.4699 139.067 19.6024ZM142.999 17.8752H149.388C149.224 15.834 148.077 14.7349 146.275 14.7349C145.419 14.7731 144.609 15.1163 144.002 15.6971C143.396 16.278 143.038 17.0547 142.999 17.8752Z" fill="#1A519A"/>
<path d="M164.955 5C168.354 5 170.799 6.79718 171.117 10.5155L168.862 10.7634C168.385 7.88169 166.67 6.92113 164.765 6.92113C162.764 6.92113 160.985 8.12958 160.985 10.2986C160.985 12.8394 162.7 13.6761 165.686 14.6676C169.624 16 171.72 17.5183 171.72 20.8958C171.72 24.5521 168.925 27 164.797 27C160.731 27 158.762 24.9859 158 21.7014L160.128 21.0817C160.636 23.4676 162.065 25.0479 164.86 25.0479C167.655 25.0479 169.433 23.4986 169.433 21.0197C169.433 18.4169 167.337 17.3014 164.479 16.4028C161.335 15.4423 158.699 14.1718 158.699 10.4845C158.699 7.2 161.176 5 164.955 5Z" fill="#444546"/>
<path d="M182.182 27C177.64 27 174.909 23.9014 174.909 19.1606C174.909 14.3577 177.767 11.1662 181.928 11.1662C186.501 11.1662 188.629 14.1408 188.343 18.9437H177.069V19.0986C177.069 22.9718 179.07 25.1718 182.182 25.1718C184.119 25.1718 185.421 24.2113 186.374 22.662L188.089 23.6225C186.819 25.7916 184.977 27 182.182 27ZM181.833 12.9634C179.482 12.9634 177.704 14.6056 177.196 17.3944H186.215C186.025 14.6056 184.627 12.9634 181.833 12.9634Z" fill="#444546"/>
<path d="M195.022 26.6901H192.894V11.4761H194.895V13.738C196.102 12.3437 197.944 11.1662 200.898 11.1662V13.1183C198.325 13.1183 196.578 13.9859 195.022 15.4732V26.6901Z" fill="#444546"/>
<path d="M208.616 26.6901L202.836 11.4761H205.154L209.95 24.738L214.65 11.4761H216.873L211.125 26.6901H208.616Z" fill="#444546"/>
<path d="M226.316 27C221.775 27 219.043 23.9014 219.043 19.1606C219.043 14.3577 221.902 11.1662 226.062 11.1662C230.636 11.1662 232.764 14.1408 232.478 18.9437H221.203V19.0986C221.203 22.9718 223.204 25.1718 226.316 25.1718C228.254 25.1718 229.556 24.2113 230.509 22.662L232.224 23.6225C230.953 25.7916 229.111 27 226.316 27ZM225.967 12.9634C223.617 12.9634 221.838 14.6056 221.33 17.3944H230.35C230.159 14.6056 228.762 12.9634 225.967 12.9634Z" fill="#444546"/>
<path d="M239.157 26.6901H237.029V11.4761H239.03V13.738C240.236 12.3437 242.078 11.1662 245.032 11.1662V13.1183C242.46 13.1183 240.713 13.9859 239.157 15.4732V26.6901Z" fill="#444546"/>
<rect width="32" height="32" rx="7.38462" fill="url(#paint0_linear_183_10587)"/>
<path d="M6.07129 11.2411C6.07129 13.3787 7.14983 13.9132 8.09357 13.9132H23.3984C26.2296 13.579 26.2942 9.21668 25.0809 7.88076C24.0511 6.74699 22.4948 6.79225 16.897 6.79224" stroke="#FAFAFA" stroke-width="2"/>
<path d="M25.8289 21.2468C25.8289 19.4494 24.7503 18.5 23.8066 18.5L8.50176 18.5C5.67054 18.781 5.60591 23.3767 6.81929 24.5C7.84906 25.4533 8.90221 25.4277 14.5 25.4277" stroke="#FAFAFA" stroke-width="2"/>
<path d="M20.0162 10.9998C20.0162 11.552 19.5685 11.9998 19.0162 11.9998C18.4639 11.9998 18.0162 11.552 18.0162 10.9998C18.0162 10.4475 18.4639 9.99976 19.0162 9.99976C19.5685 9.99976 20.0162 10.4475 20.0162 10.9998Z" fill="#FAFAFA"/>
<path d="M23.5001 11.0001C23.5001 11.5524 23.0524 12.0001 22.5001 12.0001C21.9478 12.0001 21.5001 11.5524 21.5001 11.0001C21.5001 10.4478 21.9478 10.0001 22.5001 10.0001C23.0524 10.0001 23.5001 10.4478 23.5001 11.0001Z" fill="#FAFAFA"/>
<path d="M10.6054 8.78707C10.5411 8.89306 10.6565 9.01673 10.7667 8.95991L15.14 6.7046C15.229 6.65867 15.2285 6.53117 15.1391 6.4859L10.6514 4.21362C10.5384 4.15641 10.4233 4.28697 10.4942 4.39192L11.9138 6.49297C11.9406 6.5327 11.9419 6.58443 11.917 6.62542L10.6054 8.78707Z" fill="white"/>
<path d="M20.797 23.2854C20.859 23.178 20.7409 23.0569 20.632 23.1161L16.3086 25.4656C16.2205 25.5134 16.2238 25.6409 16.3141 25.6842L20.85 27.8588C20.9642 27.9135 21.0765 27.7805 21.0034 27.6771L19.5386 25.6073C19.5109 25.5681 19.5085 25.5165 19.5325 25.4749L20.797 23.2854Z" fill="white"/>
<path d="M12.0001 5.49999C10 6 3.99998 4.5 4.99987 10.0006C5.49985 10.0006 7 10.0001 7 10.0001C6.49998 6.5 8.00023 7.5005 12.0001 7.50027L12.0001 5.49999Z" fill="white"/>
<path d="M19.4738 26.6021C21.4626 26.0589 28.0009 27.7607 26.8821 22.283C26.3822 22.2939 25 22.283 25 22.283C25.5756 25.7715 23.4294 24.5154 19.4304 24.6023L19.4738 26.6021Z" fill="white"/>
<defs>
<linearGradient id="paint0_linear_183_10587" x1="30" y1="31" x2="2.26761" y2="4.45677" gradientUnits="userSpaceOnUse">
<stop stop-color="#134587"/>
<stop offset="1" stop-color="#2763B1"/>
</linearGradient>
</defs>
</svg>
